# xmcd
#
# Track frame offsets:
#	182
#	19235
#	43910
#	82105
#	103920
#	121217
#	148630
#	192282
#
# Disc length: 2734 seconds
#
# Revision: 0
# Processed by: cddbd v1.4PL0 Copyright (c) Steve Scherf et al.
# Submitted via: EasyCDDAExtractor 4.5.0.2
#
DISCID=710aac08
DTITLE=Zeb and the Blues Machine - Talkin' to your soul
DYEAR=1996
DGENRE=Blues
TTITLE0=Hot'n Fast
TTITLE1=Talkin' To Your Soul
TTITLE2=Blue Spirit
TTITLE3=Easy Ride
TTITLE4=Hope
TTITLE5=Straight Ahead
TTITLE6=Blues For Lisa
TTITLE7=Back To Boston
EXTD=
EXTT0=
EXTT1=
EXTT2=
EXTT3=
EXTT4=
EXTT5=
EXTT6=
EXTT7=
PLAYORDER=
